<svg width="24" height="24" viewBox="0 0 24 24" fill="none" xmlns="http://www.w3.org/2000/svg">
<g id="Group">
<g id="Group_2">
<path id="Path" fill-rule="evenodd" clip-rule="evenodd" d="M5.03498 16.61L6.20798 15.437C6.79398 14.851 7.74398 14.851 8.32898 15.437L9.25098 16.359C9.45698 16.565 9.76898 16.634 10.035 16.517C11.371 15.932 12.691 15.045 13.868 13.868C15.04 12.696 15.924 11.382 16.51 10.051C16.632 9.77597 16.561 9.45297 16.348 9.23997L15.522 8.41397C14.851 7.74297 14.851 6.79397 15.437 6.20797L16.61 5.03497C17.391 4.25397 18.657 4.25397 19.438 5.03497L20.09 5.68597C20.831 6.42697 21.14 7.49597 20.94 8.55597C20.446 11.169 18.928 14.03 16.479 16.479C14.03 18.928 11.169 20.446 8.55597 20.94C7.49597 21.14 6.42698 20.831 5.68598 20.09L5.03498 19.439C4.25398 18.658 4.25398 17.392 5.03498 16.61V16.61Z" stroke="black" stroke-width="1.5" stroke-linecap="round" stroke-linejoin="round"/>
<path id="Path_2" d="M11 6.99256C9.969 6.97856 8.933 7.36056 8.146 8.14756" stroke="black" stroke-width="1.5" stroke-linecap="round" stroke-linejoin="round"/>
<path id="Path_3" d="M5.318 5.31884C6.887 3.74984 8.944 2.96484 11 2.96484" stroke="black" stroke-width="1.5" stroke-linecap="round" stroke-linejoin="round"/>
<path id="Path_4" d="M6.991 11.0005C6.977 9.96948 7.359 8.93348 8.146 8.14648" stroke="black" stroke-width="1.5" stroke-linecap="round" stroke-linejoin="round"/>
<path id="Path_5" d="M5.31799 5.31836C3.74899 6.88736 2.96399 8.94436 2.96399 11.0004" stroke="black" stroke-width="1.5" stroke-linecap="round" stroke-linejoin="round"/>
</g>
</g>
</svg>
